<svg xmlns="http://www.w3.org/2000/svg" version="1.1" xmlns:xlink="http://www.w3.org/1999/xlink" xmlns:svgjs="http://svgjs.dev/svgjs" width="2000" height="2993" viewBox="0 0 2000 2993"><g transform="matrix(1,0,0,1,-0.8969696969697907,1.2117408906881337)"><svg viewBox="0 0 165 247" data-background-color="#000000" preserveAspectRatio="xMidYMid meet" height="2993" width="2000" xmlns="http://www.w3.org/2000/svg" xmlns:xlink="http://www.w3.org/1999/xlink"><g id="tight-bounds" transform="matrix(1,0,0,1,0.07400000000001228,-0.09999999999999432)"><svg viewBox="0 0 164.85165118369108 247.2" height="247.2" width="164.85165118369108"><rect width="164.852" height="247.2" fill="url(#1a2d9b40-2962-4f6f-95a5-936a2753e0d5)" mask="url(#11056650-a2b8-49e2-8d31-841718690c05)" data-fill-palette-color="tertiary"></rect><g><svg></svg></g><g><svg viewBox="0 0 164.85165118369108 247.2" height="247.2" width="164.85165118369108"><g transform="matrix(1,0,0,1,0,47.215199999999996)"><svg viewBox="0 0 164.85165118369108 152.7696" height="152.7696" width="164.85165118369108"><g><svg viewBox="0 0 245.65351679999995 227.64946077678104" height="152.7696" width="164.85165118369108"><g></g><g transform="matrix(1,0,0,1,0.6110783999999825,143.19637489326675)"><svg viewBox="0 0 244.43135999999998 84.4530858835143" height="84.4530858835143" width="244.43135999999998"><g id="textblocktransform"><svg viewBox="0 0 244.43135999999998 84.4530858835143" height="84.4530858835143" width="244.43135999999998" id="textblock"><g><svg viewBox="0 0 244.43135999999998 84.4530858835143" height="84.4530858835143" width="244.43135999999998"><g transform="matrix(1,0,0,1,0,0)"><svg width="244.43135999999998" viewBox="4 -35 101.29 35" height="84.4530858835143" data-palette-color="url(#50d2e7f1-e259-4fa6-901e-46239b29c226)"></svg></g></svg></g></svg></g></svg></g><g transform="matrix(1,0,0,1,75.81412302722565,0)"><svg viewBox="0 0 94.02527074554865 95.70561504663375" height="95.70561504663375" width="94.02527074554865"><g><svg version="1.1" xmlns="http://www.w3.org/2000/svg" xmlns:xlink="http://www.w3.org/1999/xlink" x="0" y="0" viewBox="0 0 98.24523979333988 100.00099999999999" enable-background="new 0 0 98.246 100.001" xml:space="preserve" width="94.02527074554865" height="95.70561504663375" class="icon-icon-0" data-fill-palette-color="accent" id="icon-0"></svg></g></svg></g><g></g></svg></g></svg></g><path d="M0 41.215L0 1 164.852 1 164.852 41.215 159.741 41.215 159.741 6.111 5.111 6.111 5.111 41.215 0 41.215M0 205.985L0 246.2 164.852 246.2 164.852 205.985 159.741 205.985 159.741 241.089 5.111 241.089 5.111 205.985 0 205.985" fill="url(#1a2d9b40-2962-4f6f-95a5-936a2753e0d5)" stroke="transparent" data-fill-palette-color="tertiary"></path></svg></g><defs></defs><mask id="9f71d988-ed8d-45e6-a367-e3583d12e19c"><g id="SvgjsG2016"><svg viewBox="0 0 164.85165118369108 247.2" height="247.2" width="164.85165118369108"><g><svg></svg></g><g><svg viewBox="0 0 164.85165118369108 247.2" height="247.2" width="164.85165118369108"><g transform="matrix(1,0,0,1,0,47.215199999999996)"><svg viewBox="0 0 164.85165118369108 152.7696" height="152.7696" width="164.85165118369108"><g><svg viewBox="0 0 245.65351679999995 227.64946077678104" height="152.7696" width="164.85165118369108"><g><rect width="245.65351679999995" height="7.616066440559953" x="0" y="115.64296174967028" fill="white" opacity="1" stroke-width="0" stroke="transparent" fill-opacity="1" class="rect-qz-0" rx="1%" id="SvgjsRect2015" data-palette-color="url(#50d2e7f1-e259-4fa6-901e-46239b29c226)"></rect></g><g transform="matrix(1,0,0,1,0.6110783999999825,143.19637489326675)"><svg viewBox="0 0 244.43135999999998 84.4530858835143" height="84.4530858835143" width="244.43135999999998"><g id="SvgjsG2014"><svg viewBox="0 0 244.43135999999998 84.4530858835143" height="84.4530858835143" width="244.43135999999998" id="SvgjsSvg2013"><g><svg viewBox="0 0 244.43135999999998 84.4530858835143" height="84.4530858835143" width="244.43135999999998"><g transform="matrix(1,0,0,1,0,0)"><svg width="244.43135999999998" viewBox="4 -35 101.29 35" height="84.4530858835143" data-palette-color="url(#50d2e7f1-e259-4fa6-901e-46239b29c226)"><path d="M8.75 0L4 0 4-35 25.35-35 25.35-30.7 8.75-30.7 8.75-20.45 21.55-20.45 21.55-16.15 8.75-16.15 8.75 0ZM34.9 0L30.15 0 30.15-35 34.9-35 34.9 0ZM47.65 0L42.9 0 42.9-35 48.05-35 65.3-8.8 65.3-35 70.09-35 70.09 0 66.05 0 47.65-27.65 47.65 0ZM82.84 0L78.09 0 78.09-35 83.24-35 100.49-8.8 100.49-35 105.29-35 105.29 0 101.24 0 82.84-27.65 82.84 0Z" opacity="1" transform="matrix(1,0,0,1,0,0)" fill="white" class="wordmark-text-0" id="SvgjsPath2012"></path></svg></g></svg></g></svg></g></svg></g><g transform="matrix(1,0,0,1,75.81412302722565,0)"><svg viewBox="0 0 94.02527074554865 95.70561504663375" height="95.70561504663375" width="94.02527074554865"><g><svg version="1.1" xmlns="http://www.w3.org/2000/svg" xmlns:xlink="http://www.w3.org/1999/xlink" x="0" y="0" viewBox="0 0 98.24523979333988 100.00099999999999" enable-background="new 0 0 98.246 100.001" xml:space="preserve" width="94.02527074554865" height="95.70561504663375" class="icon-icon-0" data-fill-palette-color="accent" id="SvgjsSvg2011"><g fill="black"><path fill="black" d="M89.161 22.676c-2.339-1.332-4.988-2.008-7.878-2.008-2.835 0-5.562 0.338-6.902 0.65-0.271 0.062-0.545 0.095-0.811 0.095-1.284 0-2.274-0.741-2.699-1.556v-6.728c0-2.837-1.976-6.858-11.375-9.895C53.031 1.147 44.488 0 35.435 0c-9.051 0-17.597 1.149-24.06 3.235C1.973 6.271 0 10.291 0 13.129v71.249c0 2.188 1.146 4.336 3.412 6.377 1.877 1.7 4.557 3.317 7.75 4.683 6.884 2.943 15.504 4.563 24.273 4.563s17.389-1.62 24.274-4.563c3.193-1.365 5.872-2.982 7.751-4.683 2.265-2.041 3.412-4.189 3.412-6.377V77.01c1.452-2.113 3.055-2.453 5.556-2.98 1.405-0.292 2.993-0.623 4.703-1.347 4.75-1.997 8.55-4.805 11.293-8.353 2.907-3.757 4.659-8.379 5.202-13.729l0.071-0.689c0.669-6.499 1.501-14.588-2.711-21.451C93.445 25.949 91.485 24.002 89.161 22.676zM14.901 15.015c3.549-2.517 11.408-4.267 20.534-4.267 9.127 0 16.984 1.75 20.533 4.267 1.271-0.68 1.916-1.351 1.916-1.886 0-0.502-0.667-1.177-1.785-1.807-0.602-0.338-0.814-1.1-0.479-1.7 0.339-0.6 1.1-0.812 1.698-0.475 2.03 1.144 3.059 2.481 3.059 3.982 0 5.127-12.549 7.809-24.945 7.809-12.396 0-24.945-2.683-24.945-7.809 0-1.501 1.032-2.844 3.068-3.987 0.602-0.339 1.362-0.125 1.698 0.477 0.338 0.603 0.124 1.361-0.477 1.7-1.125 0.631-1.795 1.307-1.795 1.811C12.985 13.664 13.633 14.333 14.901 15.015zM70.871 34.645c1.354-1.577 2.94-2.75 4.706-3.273 0.919-0.272 4.021-0.719 5.703-0.719 2.373 0 3.875 0.877 5.197 3.029 2.465 4.016 1.892 9.473 1.338 14.744-0.041 0.393-0.081 0.782-0.121 1.166-0.716 7.018-3.979 11.411-10.277 13.824-0.835 0.323-1.754 0.482-2.727 0.482-1.749 0-3.139-0.509-3.819-0.891V34.645L70.871 34.645z"></path></g></svg></g></svg></g><g></g></svg></g></svg></g><path d="M0 41.215L0 1 164.852 1 164.852 41.215 159.741 41.215 159.741 6.111 5.111 6.111 5.111 41.215 0 41.215M0 205.985L0 246.2 164.852 246.2 164.852 205.985 159.741 205.985 159.741 241.089 5.111 241.089 5.111 205.985 0 205.985" fill="black" stroke="transparent"></path></svg></g><defs><mask></mask></defs></svg><rect width="164.85165118369108" height="247.2" fill="black" stroke="none" visibility="hidden"></rect></g></mask><linearGradient x1="0" x2="1" y1="0.5" y2="0.5" id="50d2e7f1-e259-4fa6-901e-46239b29c226"><stop stop-color="#ffa62e" offset="0"></stop><stop stop-color="#f71b3d" offset="1"></stop></linearGradient><rect width="164.852" height="247.2" fill="url(#50d2e7f1-e259-4fa6-901e-46239b29c226)" mask="url(#9f71d988-ed8d-45e6-a367-e3583d12e19c)" data-fill-palette-color="primary"></rect><mask id="c14a6df3-78fd-48e2-97f3-1d7cfd19b541"><g id="SvgjsG2037"><svg viewBox="0 0 164.85165118369108 247.2" height="247.2" width="164.85165118369108"><g><svg></svg></g><g><svg viewBox="0 0 164.85165118369108 247.2" height="247.2" width="164.85165118369108"><g transform="matrix(1,0,0,1,0,47.215199999999996)"><svg viewBox="0 0 164.85165118369108 152.7696" height="152.7696" width="164.85165118369108"><g><svg viewBox="0 0 245.65351679999995 227.64946077678104" height="152.7696" width="164.85165118369108"><g></g><g transform="matrix(1,0,0,1,0.6110783999999825,143.19637489326675)"><svg viewBox="0 0 244.43135999999998 84.4530858835143" height="84.4530858835143" width="244.43135999999998"><g id="SvgjsG2036"><svg viewBox="0 0 244.43135999999998 84.4530858835143" height="84.4530858835143" width="244.43135999999998" id="SvgjsSvg2035"><g><svg viewBox="0 0 244.43135999999998 84.4530858835143" height="84.4530858835143" width="244.43135999999998"><g transform="matrix(1,0,0,1,0,0)"><svg width="244.43135999999998" viewBox="4 -35 101.29 35" height="84.4530858835143" data-palette-color="url(#50d2e7f1-e259-4fa6-901e-46239b29c226)"></svg></g></svg></g></svg></g></svg></g><g transform="matrix(1,0,0,1,75.81412302722565,0)"><svg viewBox="0 0 94.02527074554865 95.70561504663375" height="95.70561504663375" width="94.02527074554865"><g><svg version="1.1" xmlns="http://www.w3.org/2000/svg" xmlns:xlink="http://www.w3.org/1999/xlink" x="0" y="0" viewBox="0 0 98.24523979333988 100.00099999999999" enable-background="new 0 0 98.246 100.001" xml:space="preserve" width="94.02527074554865" height="95.70561504663375" class="icon-icon-0" data-fill-palette-color="accent" id="SvgjsSvg2034"><g fill="white"><path fill="white" d="M89.161 22.676c-2.339-1.332-4.988-2.008-7.878-2.008-2.835 0-5.562 0.338-6.902 0.65-0.271 0.062-0.545 0.095-0.811 0.095-1.284 0-2.274-0.741-2.699-1.556v-6.728c0-2.837-1.976-6.858-11.375-9.895C53.031 1.147 44.488 0 35.435 0c-9.051 0-17.597 1.149-24.06 3.235C1.973 6.271 0 10.291 0 13.129v71.249c0 2.188 1.146 4.336 3.412 6.377 1.877 1.7 4.557 3.317 7.75 4.683 6.884 2.943 15.504 4.563 24.273 4.563s17.389-1.62 24.274-4.563c3.193-1.365 5.872-2.982 7.751-4.683 2.265-2.041 3.412-4.189 3.412-6.377V77.01c1.452-2.113 3.055-2.453 5.556-2.98 1.405-0.292 2.993-0.623 4.703-1.347 4.75-1.997 8.55-4.805 11.293-8.353 2.907-3.757 4.659-8.379 5.202-13.729l0.071-0.689c0.669-6.499 1.501-14.588-2.711-21.451C93.445 25.949 91.485 24.002 89.161 22.676zM14.901 15.015c3.549-2.517 11.408-4.267 20.534-4.267 9.127 0 16.984 1.75 20.533 4.267 1.271-0.68 1.916-1.351 1.916-1.886 0-0.502-0.667-1.177-1.785-1.807-0.602-0.338-0.814-1.1-0.479-1.7 0.339-0.6 1.1-0.812 1.698-0.475 2.03 1.144 3.059 2.481 3.059 3.982 0 5.127-12.549 7.809-24.945 7.809-12.396 0-24.945-2.683-24.945-7.809 0-1.501 1.032-2.844 3.068-3.987 0.602-0.339 1.362-0.125 1.698 0.477 0.338 0.603 0.124 1.361-0.477 1.7-1.125 0.631-1.795 1.307-1.795 1.811C12.985 13.664 13.633 14.333 14.901 15.015zM70.871 34.645c1.354-1.577 2.94-2.75 4.706-3.273 0.919-0.272 4.021-0.719 5.703-0.719 2.373 0 3.875 0.877 5.197 3.029 2.465 4.016 1.892 9.473 1.338 14.744-0.041 0.393-0.081 0.782-0.121 1.166-0.716 7.018-3.979 11.411-10.277 13.824-0.835 0.323-1.754 0.482-2.727 0.482-1.749 0-3.139-0.509-3.819-0.891V34.645L70.871 34.645z"></path></g></svg></g></svg></g><g></g></svg></g></svg></g><path d="M0 41.215L0 1 164.852 1 164.852 41.215 159.741 41.215 159.741 6.111 5.111 6.111 5.111 41.215 0 41.215M0 205.985L0 246.2 164.852 246.2 164.852 205.985 159.741 205.985 159.741 241.089 5.111 241.089 5.111 205.985 0 205.985" fill="black" stroke="transparent"></path></svg></g><defs><mask></mask></defs><mask><g id="SvgjsG2033"><svg viewBox="0 0 164.85165118369108 247.2" height="247.2" width="164.85165118369108"><g><svg></svg></g><g><svg viewBox="0 0 164.85165118369108 247.2" height="247.2" width="164.85165118369108"><g transform="matrix(1,0,0,1,0,47.215199999999996)"><svg viewBox="0 0 164.85165118369108 152.7696" height="152.7696" width="164.85165118369108"><g><svg viewBox="0 0 245.65351679999995 227.64946077678104" height="152.7696" width="164.85165118369108"><g><rect width="245.65351679999995" height="7.616066440559953" x="0" y="115.64296174967028" fill="black" opacity="1" stroke-width="0" stroke="transparent" fill-opacity="1" class="rect-qz-0" rx="1%" id="SvgjsRect2032" data-palette-color="url(#50d2e7f1-e259-4fa6-901e-46239b29c226)"></rect></g><g transform="matrix(1,0,0,1,0.6110783999999825,143.19637489326675)"><svg viewBox="0 0 244.43135999999998 84.4530858835143" height="84.4530858835143" width="244.43135999999998"><g id="SvgjsG2031"><svg viewBox="0 0 244.43135999999998 84.4530858835143" height="84.4530858835143" width="244.43135999999998" id="SvgjsSvg2030"><g><svg viewBox="0 0 244.43135999999998 84.4530858835143" height="84.4530858835143" width="244.43135999999998"><g transform="matrix(1,0,0,1,0,0)"><svg width="244.43135999999998" viewBox="4 -35 101.29 35" height="84.4530858835143" data-palette-color="url(#50d2e7f1-e259-4fa6-901e-46239b29c226)"><path d="M8.75 0L4 0 4-35 25.35-35 25.35-30.7 8.75-30.7 8.75-20.45 21.55-20.45 21.55-16.15 8.75-16.15 8.75 0ZM34.9 0L30.15 0 30.15-35 34.9-35 34.9 0ZM47.65 0L42.9 0 42.9-35 48.05-35 65.3-8.8 65.3-35 70.09-35 70.09 0 66.05 0 47.65-27.65 47.65 0ZM82.84 0L78.09 0 78.09-35 83.24-35 100.49-8.8 100.49-35 105.29-35 105.29 0 101.24 0 82.84-27.65 82.84 0Z" opacity="1" transform="matrix(1,0,0,1,0,0)" fill="black" class="wordmark-text-0" id="SvgjsPath2029"></path></svg></g></svg></g></svg></g></svg></g><g transform="matrix(1,0,0,1,75.81412302722565,0)"><svg viewBox="0 0 94.02527074554865 95.70561504663375" height="95.70561504663375" width="94.02527074554865"><g><svg version="1.1" xmlns="http://www.w3.org/2000/svg" xmlns:xlink="http://www.w3.org/1999/xlink" x="0" y="0" viewBox="0 0 98.24523979333988 100.00099999999999" enable-background="new 0 0 98.246 100.001" xml:space="preserve" width="94.02527074554865" height="95.70561504663375" class="icon-icon-0" data-fill-palette-color="accent" id="SvgjsSvg2028"><g fill="black"><path fill="black" d="M89.161 22.676c-2.339-1.332-4.988-2.008-7.878-2.008-2.835 0-5.562 0.338-6.902 0.65-0.271 0.062-0.545 0.095-0.811 0.095-1.284 0-2.274-0.741-2.699-1.556v-6.728c0-2.837-1.976-6.858-11.375-9.895C53.031 1.147 44.488 0 35.435 0c-9.051 0-17.597 1.149-24.06 3.235C1.973 6.271 0 10.291 0 13.129v71.249c0 2.188 1.146 4.336 3.412 6.377 1.877 1.7 4.557 3.317 7.75 4.683 6.884 2.943 15.504 4.563 24.273 4.563s17.389-1.62 24.274-4.563c3.193-1.365 5.872-2.982 7.751-4.683 2.265-2.041 3.412-4.189 3.412-6.377V77.01c1.452-2.113 3.055-2.453 5.556-2.98 1.405-0.292 2.993-0.623 4.703-1.347 4.75-1.997 8.55-4.805 11.293-8.353 2.907-3.757 4.659-8.379 5.202-13.729l0.071-0.689c0.669-6.499 1.501-14.588-2.711-21.451C93.445 25.949 91.485 24.002 89.161 22.676zM14.901 15.015c3.549-2.517 11.408-4.267 20.534-4.267 9.127 0 16.984 1.75 20.533 4.267 1.271-0.68 1.916-1.351 1.916-1.886 0-0.502-0.667-1.177-1.785-1.807-0.602-0.338-0.814-1.1-0.479-1.7 0.339-0.6 1.1-0.812 1.698-0.475 2.03 1.144 3.059 2.481 3.059 3.982 0 5.127-12.549 7.809-24.945 7.809-12.396 0-24.945-2.683-24.945-7.809 0-1.501 1.032-2.844 3.068-3.987 0.602-0.339 1.362-0.125 1.698 0.477 0.338 0.603 0.124 1.361-0.477 1.7-1.125 0.631-1.795 1.307-1.795 1.811C12.985 13.664 13.633 14.333 14.901 15.015zM70.871 34.645c1.354-1.577 2.94-2.75 4.706-3.273 0.919-0.272 4.021-0.719 5.703-0.719 2.373 0 3.875 0.877 5.197 3.029 2.465 4.016 1.892 9.473 1.338 14.744-0.041 0.393-0.081 0.782-0.121 1.166-0.716 7.018-3.979 11.411-10.277 13.824-0.835 0.323-1.754 0.482-2.727 0.482-1.749 0-3.139-0.509-3.819-0.891V34.645L70.871 34.645z"></path></g></svg></g></svg></g><g></g></svg></g></svg></g><path d="M0 41.215L0 1 164.852 1 164.852 41.215 159.741 41.215 159.741 6.111 5.111 6.111 5.111 41.215 0 41.215M0 205.985L0 246.2 164.852 246.2 164.852 205.985 159.741 205.985 159.741 241.089 5.111 241.089 5.111 205.985 0 205.985" fill="black" stroke="transparent"></path></svg></g><defs><mask></mask></defs></svg><rect width="164.85165118369108" height="247.2" fill="black" stroke="none" visibility="hidden"></rect></g></mask></svg><rect width="164.85165118369108" height="247.2" fill="black" stroke="none" visibility="hidden"></rect></g></mask><linearGradient x1="0" x2="1" y1="0.5" y2="0.5" id="0edc7dbf-2126-452c-9e7b-ff9db36b1979"><stop stop-color="#ffa62e" offset="0"></stop><stop stop-color="#f71b3d" offset="1"></stop></linearGradient><rect width="164.852" height="247.2" fill="url(#0edc7dbf-2126-452c-9e7b-ff9db36b1979)" mask="url(#c14a6df3-78fd-48e2-97f3-1d7cfd19b541)" data-fill-palette-color="accent"></rect><mask id="11056650-a2b8-49e2-8d31-841718690c05"><g id="SvgjsG2057"><svg viewBox="0 0 164.85165118369108 247.2" height="247.2" width="164.85165118369108"><g><svg></svg></g><g><svg viewBox="0 0 164.85165118369108 247.2" height="247.2" width="164.85165118369108"><g transform="matrix(1,0,0,1,0,47.215199999999996)"><svg viewBox="0 0 164.85165118369108 152.7696" height="152.7696" width="164.85165118369108"><g><svg viewBox="0 0 245.65351679999995 227.64946077678104" height="152.7696" width="164.85165118369108"><g></g><g transform="matrix(1,0,0,1,0.6110783999999825,143.19637489326675)"><svg viewBox="0 0 244.43135999999998 84.4530858835143" height="84.4530858835143" width="244.43135999999998"><g id="SvgjsG2056"><svg viewBox="0 0 244.43135999999998 84.4530858835143" height="84.4530858835143" width="244.43135999999998" id="SvgjsSvg2055"><g><svg viewBox="0 0 244.43135999999998 84.4530858835143" height="84.4530858835143" width="244.43135999999998"><g transform="matrix(1,0,0,1,0,0)"><svg width="244.43135999999998" viewBox="4 -35 101.29 35" height="84.4530858835143" data-palette-color="url(#50d2e7f1-e259-4fa6-901e-46239b29c226)"></svg></g></svg></g></svg></g></svg></g><g transform="matrix(1,0,0,1,75.81412302722565,0)"><svg viewBox="0 0 94.02527074554865 95.70561504663375" height="95.70561504663375" width="94.02527074554865"><g><svg version="1.1" xmlns="http://www.w3.org/2000/svg" xmlns:xlink="http://www.w3.org/1999/xlink" x="0" y="0" viewBox="0 0 98.24523979333988 100.00099999999999" enable-background="new 0 0 98.246 100.001" xml:space="preserve" width="94.02527074554865" height="95.70561504663375" class="icon-icon-0" data-fill-palette-color="accent" id="SvgjsSvg2054"></svg></g></svg></g><g></g></svg></g></svg></g><path d="M0 41.215L0 1 164.852 1 164.852 41.215 159.741 41.215 159.741 6.111 5.111 6.111 5.111 41.215 0 41.215M0 205.985L0 246.2 164.852 246.2 164.852 205.985 159.741 205.985 159.741 241.089 5.111 241.089 5.111 205.985 0 205.985" fill="white" stroke="transparent"></path></svg></g><defs><mask></mask></defs><mask><g id="SvgjsG2053"><svg viewBox="0 0 164.85165118369108 247.2" height="247.2" width="164.85165118369108"><g><svg></svg></g><g><svg viewBox="0 0 164.85165118369108 247.2" height="247.2" width="164.85165118369108"><g transform="matrix(1,0,0,1,0,47.215199999999996)"><svg viewBox="0 0 164.85165118369108 152.7696" height="152.7696" width="164.85165118369108"><g><svg viewBox="0 0 245.65351679999995 227.64946077678104" height="152.7696" width="164.85165118369108"><g><rect width="245.65351679999995" height="7.616066440559953" x="0" y="115.64296174967028" fill="black" opacity="1" stroke-width="0" stroke="transparent" fill-opacity="1" class="rect-qz-0" rx="1%" id="SvgjsRect2052" data-palette-color="url(#50d2e7f1-e259-4fa6-901e-46239b29c226)"></rect></g><g transform="matrix(1,0,0,1,0.6110783999999825,143.19637489326675)"><svg viewBox="0 0 244.43135999999998 84.4530858835143" height="84.4530858835143" width="244.43135999999998"><g id="SvgjsG2051"><svg viewBox="0 0 244.43135999999998 84.4530858835143" height="84.4530858835143" width="244.43135999999998" id="SvgjsSvg2050"><g><svg viewBox="0 0 244.43135999999998 84.4530858835143" height="84.4530858835143" width="244.43135999999998"><g transform="matrix(1,0,0,1,0,0)"><svg width="244.43135999999998" viewBox="4 -35 101.29 35" height="84.4530858835143" data-palette-color="url(#50d2e7f1-e259-4fa6-901e-46239b29c226)"><path d="M8.75 0L4 0 4-35 25.35-35 25.35-30.7 8.75-30.7 8.75-20.45 21.55-20.45 21.55-16.15 8.75-16.15 8.75 0ZM34.9 0L30.15 0 30.15-35 34.9-35 34.9 0ZM47.65 0L42.9 0 42.9-35 48.05-35 65.3-8.8 65.3-35 70.09-35 70.09 0 66.05 0 47.65-27.65 47.65 0ZM82.84 0L78.09 0 78.09-35 83.24-35 100.49-8.8 100.49-35 105.29-35 105.29 0 101.24 0 82.84-27.65 82.84 0Z" opacity="1" transform="matrix(1,0,0,1,0,0)" fill="black" class="wordmark-text-0" id="SvgjsPath2049"></path></svg></g></svg></g></svg></g></svg></g><g transform="matrix(1,0,0,1,75.81412302722565,0)"><svg viewBox="0 0 94.02527074554865 95.70561504663375" height="95.70561504663375" width="94.02527074554865"><g><svg version="1.1" xmlns="http://www.w3.org/2000/svg" xmlns:xlink="http://www.w3.org/1999/xlink" x="0" y="0" viewBox="0 0 98.24523979333988 100.00099999999999" enable-background="new 0 0 98.246 100.001" xml:space="preserve" width="94.02527074554865" height="95.70561504663375" class="icon-icon-0" data-fill-palette-color="accent" id="SvgjsSvg2048"><g fill="black"><path fill="black" d="M89.161 22.676c-2.339-1.332-4.988-2.008-7.878-2.008-2.835 0-5.562 0.338-6.902 0.65-0.271 0.062-0.545 0.095-0.811 0.095-1.284 0-2.274-0.741-2.699-1.556v-6.728c0-2.837-1.976-6.858-11.375-9.895C53.031 1.147 44.488 0 35.435 0c-9.051 0-17.597 1.149-24.06 3.235C1.973 6.271 0 10.291 0 13.129v71.249c0 2.188 1.146 4.336 3.412 6.377 1.877 1.7 4.557 3.317 7.75 4.683 6.884 2.943 15.504 4.563 24.273 4.563s17.389-1.62 24.274-4.563c3.193-1.365 5.872-2.982 7.751-4.683 2.265-2.041 3.412-4.189 3.412-6.377V77.01c1.452-2.113 3.055-2.453 5.556-2.98 1.405-0.292 2.993-0.623 4.703-1.347 4.75-1.997 8.55-4.805 11.293-8.353 2.907-3.757 4.659-8.379 5.202-13.729l0.071-0.689c0.669-6.499 1.501-14.588-2.711-21.451C93.445 25.949 91.485 24.002 89.161 22.676zM14.901 15.015c3.549-2.517 11.408-4.267 20.534-4.267 9.127 0 16.984 1.75 20.533 4.267 1.271-0.68 1.916-1.351 1.916-1.886 0-0.502-0.667-1.177-1.785-1.807-0.602-0.338-0.814-1.1-0.479-1.7 0.339-0.6 1.1-0.812 1.698-0.475 2.03 1.144 3.059 2.481 3.059 3.982 0 5.127-12.549 7.809-24.945 7.809-12.396 0-24.945-2.683-24.945-7.809 0-1.501 1.032-2.844 3.068-3.987 0.602-0.339 1.362-0.125 1.698 0.477 0.338 0.603 0.124 1.361-0.477 1.7-1.125 0.631-1.795 1.307-1.795 1.811C12.985 13.664 13.633 14.333 14.901 15.015zM70.871 34.645c1.354-1.577 2.94-2.75 4.706-3.273 0.919-0.272 4.021-0.719 5.703-0.719 2.373 0 3.875 0.877 5.197 3.029 2.465 4.016 1.892 9.473 1.338 14.744-0.041 0.393-0.081 0.782-0.121 1.166-0.716 7.018-3.979 11.411-10.277 13.824-0.835 0.323-1.754 0.482-2.727 0.482-1.749 0-3.139-0.509-3.819-0.891V34.645L70.871 34.645z"></path></g></svg></g></svg></g><g></g></svg></g></svg></g><path d="M0 41.215L0 1 164.852 1 164.852 41.215 159.741 41.215 159.741 6.111 5.111 6.111 5.111 41.215 0 41.215M0 205.985L0 246.2 164.852 246.2 164.852 205.985 159.741 205.985 159.741 241.089 5.111 241.089 5.111 205.985 0 205.985" fill="black" stroke="transparent"></path></svg></g><defs><mask></mask></defs></svg><rect width="164.85165118369108" height="247.2" fill="black" stroke="none" visibility="hidden"></rect></g></mask><mask><g id="SvgjsG2047"><svg viewBox="0 0 164.85165118369108 247.2" height="247.2" width="164.85165118369108"><g><svg></svg></g><g><svg viewBox="0 0 164.85165118369108 247.2" height="247.2" width="164.85165118369108"><g transform="matrix(1,0,0,1,0,47.215199999999996)"><svg viewBox="0 0 164.85165118369108 152.7696" height="152.7696" width="164.85165118369108"><g><svg viewBox="0 0 245.65351679999995 227.64946077678104" height="152.7696" width="164.85165118369108"><g></g><g transform="matrix(1,0,0,1,0.6110783999999825,143.19637489326675)"><svg viewBox="0 0 244.43135999999998 84.4530858835143" height="84.4530858835143" width="244.43135999999998"><g id="SvgjsG2046"><svg viewBox="0 0 244.43135999999998 84.4530858835143" height="84.4530858835143" width="244.43135999999998" id="SvgjsSvg2045"><g><svg viewBox="0 0 244.43135999999998 84.4530858835143" height="84.4530858835143" width="244.43135999999998"><g transform="matrix(1,0,0,1,0,0)"><svg width="244.43135999999998" viewBox="4 -35 101.29 35" height="84.4530858835143" data-palette-color="url(#50d2e7f1-e259-4fa6-901e-46239b29c226)"></svg></g></svg></g></svg></g></svg></g><g transform="matrix(1,0,0,1,75.81412302722565,0)"><svg viewBox="0 0 94.02527074554865 95.70561504663375" height="95.70561504663375" width="94.02527074554865"><g><svg version="1.1" xmlns="http://www.w3.org/2000/svg" xmlns:xlink="http://www.w3.org/1999/xlink" x="0" y="0" viewBox="0 0 98.24523979333988 100.00099999999999" enable-background="new 0 0 98.246 100.001" xml:space="preserve" width="94.02527074554865" height="95.70561504663375" class="icon-icon-0" data-fill-palette-color="accent" id="SvgjsSvg2044"><g fill="black"><path fill="black" d="M89.161 22.676c-2.339-1.332-4.988-2.008-7.878-2.008-2.835 0-5.562 0.338-6.902 0.65-0.271 0.062-0.545 0.095-0.811 0.095-1.284 0-2.274-0.741-2.699-1.556v-6.728c0-2.837-1.976-6.858-11.375-9.895C53.031 1.147 44.488 0 35.435 0c-9.051 0-17.597 1.149-24.06 3.235C1.973 6.271 0 10.291 0 13.129v71.249c0 2.188 1.146 4.336 3.412 6.377 1.877 1.7 4.557 3.317 7.75 4.683 6.884 2.943 15.504 4.563 24.273 4.563s17.389-1.62 24.274-4.563c3.193-1.365 5.872-2.982 7.751-4.683 2.265-2.041 3.412-4.189 3.412-6.377V77.01c1.452-2.113 3.055-2.453 5.556-2.98 1.405-0.292 2.993-0.623 4.703-1.347 4.75-1.997 8.55-4.805 11.293-8.353 2.907-3.757 4.659-8.379 5.202-13.729l0.071-0.689c0.669-6.499 1.501-14.588-2.711-21.451C93.445 25.949 91.485 24.002 89.161 22.676zM14.901 15.015c3.549-2.517 11.408-4.267 20.534-4.267 9.127 0 16.984 1.75 20.533 4.267 1.271-0.68 1.916-1.351 1.916-1.886 0-0.502-0.667-1.177-1.785-1.807-0.602-0.338-0.814-1.1-0.479-1.7 0.339-0.6 1.1-0.812 1.698-0.475 2.03 1.144 3.059 2.481 3.059 3.982 0 5.127-12.549 7.809-24.945 7.809-12.396 0-24.945-2.683-24.945-7.809 0-1.501 1.032-2.844 3.068-3.987 0.602-0.339 1.362-0.125 1.698 0.477 0.338 0.603 0.124 1.361-0.477 1.7-1.125 0.631-1.795 1.307-1.795 1.811C12.985 13.664 13.633 14.333 14.901 15.015zM70.871 34.645c1.354-1.577 2.94-2.75 4.706-3.273 0.919-0.272 4.021-0.719 5.703-0.719 2.373 0 3.875 0.877 5.197 3.029 2.465 4.016 1.892 9.473 1.338 14.744-0.041 0.393-0.081 0.782-0.121 1.166-0.716 7.018-3.979 11.411-10.277 13.824-0.835 0.323-1.754 0.482-2.727 0.482-1.749 0-3.139-0.509-3.819-0.891V34.645L70.871 34.645z"></path></g></svg></g></svg></g><g></g></svg></g></svg></g><path d="M0 41.215L0 1 164.852 1 164.852 41.215 159.741 41.215 159.741 6.111 5.111 6.111 5.111 41.215 0 41.215M0 205.985L0 246.2 164.852 246.2 164.852 205.985 159.741 205.985 159.741 241.089 5.111 241.089 5.111 205.985 0 205.985" fill="black" stroke="transparent"></path></svg></g><defs><mask></mask></defs><mask><g id="SvgjsG2043"><svg viewBox="0 0 164.85165118369108 247.2" height="247.2" width="164.85165118369108"><g><svg></svg></g><g><svg viewBox="0 0 164.85165118369108 247.2" height="247.2" width="164.85165118369108"><g transform="matrix(1,0,0,1,0,47.215199999999996)"><svg viewBox="0 0 164.85165118369108 152.7696" height="152.7696" width="164.85165118369108"><g><svg viewBox="0 0 245.65351679999995 227.64946077678104" height="152.7696" width="164.85165118369108"><g><rect width="245.65351679999995" height="7.616066440559953" x="0" y="115.64296174967028" fill="black" opacity="1" stroke-width="0" stroke="transparent" fill-opacity="1" class="rect-qz-0" rx="1%" id="SvgjsRect2042" data-palette-color="url(#50d2e7f1-e259-4fa6-901e-46239b29c226)"></rect></g><g transform="matrix(1,0,0,1,0.6110783999999825,143.19637489326675)"><svg viewBox="0 0 244.43135999999998 84.4530858835143" height="84.4530858835143" width="244.43135999999998"><g id="SvgjsG2041"><svg viewBox="0 0 244.43135999999998 84.4530858835143" height="84.4530858835143" width="244.43135999999998" id="SvgjsSvg2040"><g><svg viewBox="0 0 244.43135999999998 84.4530858835143" height="84.4530858835143" width="244.43135999999998"><g transform="matrix(1,0,0,1,0,0)"><svg width="244.43135999999998" viewBox="4 -35 101.29 35" height="84.4530858835143" data-palette-color="url(#50d2e7f1-e259-4fa6-901e-46239b29c226)"><path d="M8.75 0L4 0 4-35 25.35-35 25.35-30.7 8.75-30.7 8.75-20.45 21.55-20.45 21.55-16.15 8.75-16.15 8.75 0ZM34.9 0L30.15 0 30.15-35 34.9-35 34.9 0ZM47.65 0L42.9 0 42.9-35 48.05-35 65.3-8.8 65.3-35 70.09-35 70.09 0 66.05 0 47.65-27.65 47.65 0ZM82.84 0L78.09 0 78.09-35 83.24-35 100.49-8.8 100.49-35 105.29-35 105.29 0 101.24 0 82.84-27.65 82.84 0Z" opacity="1" transform="matrix(1,0,0,1,0,0)" fill="black" class="wordmark-text-0" id="SvgjsPath2039"></path></svg></g></svg></g></svg></g></svg></g><g transform="matrix(1,0,0,1,75.81412302722565,0)"><svg viewBox="0 0 94.02527074554865 95.70561504663375" height="95.70561504663375" width="94.02527074554865"><g><svg version="1.1" xmlns="http://www.w3.org/2000/svg" xmlns:xlink="http://www.w3.org/1999/xlink" x="0" y="0" viewBox="0 0 98.24523979333988 100.00099999999999" enable-background="new 0 0 98.246 100.001" xml:space="preserve" width="94.02527074554865" height="95.70561504663375" class="icon-icon-0" data-fill-palette-color="accent" id="SvgjsSvg2038"><g fill="black"><path fill="black" d="M89.161 22.676c-2.339-1.332-4.988-2.008-7.878-2.008-2.835 0-5.562 0.338-6.902 0.65-0.271 0.062-0.545 0.095-0.811 0.095-1.284 0-2.274-0.741-2.699-1.556v-6.728c0-2.837-1.976-6.858-11.375-9.895C53.031 1.147 44.488 0 35.435 0c-9.051 0-17.597 1.149-24.06 3.235C1.973 6.271 0 10.291 0 13.129v71.249c0 2.188 1.146 4.336 3.412 6.377 1.877 1.7 4.557 3.317 7.75 4.683 6.884 2.943 15.504 4.563 24.273 4.563s17.389-1.62 24.274-4.563c3.193-1.365 5.872-2.982 7.751-4.683 2.265-2.041 3.412-4.189 3.412-6.377V77.01c1.452-2.113 3.055-2.453 5.556-2.98 1.405-0.292 2.993-0.623 4.703-1.347 4.75-1.997 8.55-4.805 11.293-8.353 2.907-3.757 4.659-8.379 5.202-13.729l0.071-0.689c0.669-6.499 1.501-14.588-2.711-21.451C93.445 25.949 91.485 24.002 89.161 22.676zM14.901 15.015c3.549-2.517 11.408-4.267 20.534-4.267 9.127 0 16.984 1.75 20.533 4.267 1.271-0.68 1.916-1.351 1.916-1.886 0-0.502-0.667-1.177-1.785-1.807-0.602-0.338-0.814-1.1-0.479-1.7 0.339-0.6 1.1-0.812 1.698-0.475 2.03 1.144 3.059 2.481 3.059 3.982 0 5.127-12.549 7.809-24.945 7.809-12.396 0-24.945-2.683-24.945-7.809 0-1.501 1.032-2.844 3.068-3.987 0.602-0.339 1.362-0.125 1.698 0.477 0.338 0.603 0.124 1.361-0.477 1.7-1.125 0.631-1.795 1.307-1.795 1.811C12.985 13.664 13.633 14.333 14.901 15.015zM70.871 34.645c1.354-1.577 2.94-2.75 4.706-3.273 0.919-0.272 4.021-0.719 5.703-0.719 2.373 0 3.875 0.877 5.197 3.029 2.465 4.016 1.892 9.473 1.338 14.744-0.041 0.393-0.081 0.782-0.121 1.166-0.716 7.018-3.979 11.411-10.277 13.824-0.835 0.323-1.754 0.482-2.727 0.482-1.749 0-3.139-0.509-3.819-0.891V34.645L70.871 34.645z"></path></g></svg></g></svg></g><g></g></svg></g></svg></g><path d="M0 41.215L0 1 164.852 1 164.852 41.215 159.741 41.215 159.741 6.111 5.111 6.111 5.111 41.215 0 41.215M0 205.985L0 246.2 164.852 246.2 164.852 205.985 159.741 205.985 159.741 241.089 5.111 241.089 5.111 205.985 0 205.985" fill="black" stroke="transparent"></path></svg></g><defs><mask></mask></defs></svg><rect width="164.85165118369108" height="247.2" fill="black" stroke="none" visibility="hidden"></rect></g></mask></svg><rect width="164.85165118369108" height="247.2" fill="black" stroke="none" visibility="hidden"></rect></g></mask></svg><rect width="164.85165118369108" height="247.2" fill="black" stroke="none" visibility="hidden"></rect></g></mask><linearGradient x1="0" x2="1" y1="0.5" y2="0.5" id="1a2d9b40-2962-4f6f-95a5-936a2753e0d5"><stop stop-color="#ffa62e" offset="0"></stop><stop stop-color="#f71b3d" offset="1"></stop></linearGradient></svg><rect width="164.85165118369108" height="247.2" fill="none" stroke="none" visibility="hidden"></rect></g></svg></g></svg>